<?xml version="1.0" encoding="utf-8"?>
<svg viewBox="0 0 500 500" xmlns="http://www.w3.org/2000/svg">
  <path d="M 296.759 238.23 L 296.206 238.23 L 290.062 227.105 C 289.797 226.624 289.129 226.23 288.579 226.23 L 269.938 226.23 C 269.388 226.23 268.72 226.624 268.455 227.105 L 262.311 238.23 L 261.759 238.23 C 260.658 238.23 259.239 239.13 259.239 240.23 L 259.239 250.23 C 259.239 251.33 260.658 252.23 261.759 252.23 L 263.239 252.23 L 263.239 255.23 C 263.239 256.88 265.109 258.23 266.759 258.23 L 267.759 258.23 C 269.409 258.23 270.239 256.88 270.239 255.23 L 270.239 252.23 L 287.239 252.23 L 287.239 255.23 C 287.239 256.88 289.108 258.23 290.759 258.23 L 291.759 258.23 C 293.409 258.23 294.239 256.88 294.239 255.23 L 294.239 252.23 L 296.759 252.23 C 297.859 252.23 298.239 251.33 298.239 250.23 L 298.239 240.23 C 298.239 239.13 297.858 238.23 296.759 238.23 Z M 265.259 246.23 C 263.878 246.23 262.759 245.111 262.759 243.73 C 262.759 242.349 263.878 241.23 265.259 241.23 C 266.64 241.23 267.759 242.349 267.759 243.73 C 267.759 245.111 266.639 246.23 265.259 246.23 Z M 267.259 238.23 L 271.312 230.125 C 271.557 229.632 272.209 229.23 272.759 229.23 L 285.759 229.23 C 286.309 229.23 286.96 229.632 287.206 230.125 L 291.259 238.23 L 267.259 238.23 Z M 293.259 246.23 C 291.878 246.23 290.759 245.111 290.759 243.73 C 290.759 242.349 291.878 241.23 293.259 241.23 C 294.64 241.23 295.759 242.349 295.759 243.73 C 295.759 245.111 294.639 246.23 293.259 246.23 Z"/>
</svg>